<?xml version="1.0" standalone="no"?>
<!DOCTYPE svg PUBLIC "-//W3C//DTD SVG 1.1//EN" "http://www.w3.org/Graphics/SVG/1.1/DTD/svg11.dtd" >
<svg xmlns="http://www.w3.org/2000/svg" xmlns:xlink="http://www.w3.org/1999/xlink" version="1.1">
<metadata></metadata>
<defs>
<font id="dfphaibaow12-gbregular" horiz-adv-x="2048" vert-adv-y="2048" >
<font-face units-per-em="2048" ascent="1760" descent="-288" />
<missing-glyph horiz-adv-x="682" />
<glyph horiz-adv-x="0" vert-adv-y="0" />
<glyph unicode="&#xd;" />
<glyph />
<glyph />
<glyph />
<glyph />
<glyph />
<glyph />
<glyph />
<glyph />
<glyph unicode="&#x9;" />
<glyph unicode="&#xa;" />
<glyph />
<glyph />
<glyph />
<glyph />
<glyph />
<glyph />
<glyph />
<glyph />
<glyph />
<glyph />
<glyph />
<glyph />
<glyph />
<glyph />
<glyph />
<glyph />
<glyph />
<glyph />
<glyph />
<glyph />
<glyph unicode=" "  horiz-adv-x="682" />
<glyph unicode="&#x09;" horiz-adv-x="682" />
<glyph unicode="&#xa0;" horiz-adv-x="682" />
<glyph unicode="!" horiz-adv-x="682" d="M78 102l96 260q122 -28 430 -108l-98 -258q-120 30 -428 106zM174 446q30 274 104 916l324 -56l-124 -902z" />
<glyph unicode="&#x22;" horiz-adv-x="750" d="M102 846l4 516h230l-6 -510zM414 846l6 516h228l-6 -510z" />
<glyph unicode="#" horiz-adv-x="1594" d="M140 310l18 258h206l56 290l-246 2l18 264l284 -10l52 252l252 -50l-44 -212l306 -12l56 274l258 -58l-52 -232l148 -4l-18 -272l-182 14l-54 -260l256 -2l-16 -260l-294 4l-62 -300l-266 48l58 252l-292 6l-62 -306l-264 50l56 264h-172zM630 564l300 -4l60 274l-304 10 z" />
<glyph unicode="$" horiz-adv-x="1594" d="M136 320l198 232q178 -160 362 -214v260q-212 42 -310 102q-146 86 -146 248q0 190 142 298q118 88 314 110v152h292v-158q246 -34 470 -202l-122 -258q-214 110 -348 148v-186q468 -120 468 -450q0 -188 -148 -296q-124 -92 -320 -108v-172h-292v192q-304 56 -560 302z M546 968q0 -32 150 -58v152q-150 -22 -150 -94zM988 312q146 8 146 82q0 96 -146 144v-226z" />
<glyph unicode="%" horiz-adv-x="1884" d="M62 976q0 186 112 286t300 100q136 0 242 -82q116 -90 116 -226q0 -166 -112 -284q-112 -116 -280 -116q-152 0 -260 82q-118 92 -118 240zM248 214l1186 1148l202 -218l-1180 -1146zM322 994q0 -40 38 -66q40 -24 86 -24q54 0 86 34q34 36 34 88q0 46 -38 70 q-36 22 -86 22q-54 0 -88 -34q-32 -34 -32 -90zM1050 320q0 184 118 286q110 102 296 102q138 0 244 -84q114 -92 114 -228q0 -168 -110 -282q-112 -116 -280 -116q-152 0 -260 82q-122 90 -122 240zM1310 336q0 -42 42 -66q34 -22 84 -22q52 0 88 34q32 34 32 90 q0 42 -36 68q-38 24 -86 24q-56 0 -90 -36t-34 -92z" />
<glyph unicode="&#x26;" horiz-adv-x="1346" d="M62 388q0 200 190 356q-76 136 -76 244q0 168 94 266q104 108 312 108q192 0 294 -102q88 -90 88 -228q0 -202 -286 -364q108 -96 190 -156q72 92 134 222l254 -128q-84 -174 -160 -276q68 -52 188 -150l-184 -222q-86 72 -208 166q-172 -126 -368 -126q-462 0 -462 390z M346 388q0 -112 180 -112q62 0 130 38q-140 118 -232 218q-78 -66 -78 -144zM462 988q0 -36 36 -100q182 88 182 144q0 52 -104 52q-114 0 -114 -96z" />
<glyph unicode="'" horiz-adv-x="480" d="M122 846l4 516h230l-6 -510z" />
<glyph unicode="(" horiz-adv-x="682" d="M92 688q0 292 94 524q102 254 292 360l112 -186q-108 -94 -174 -294q-62 -188 -62 -400q0 -216 60 -414q66 -214 176 -306l-112 -186q-190 106 -292 370q-94 240 -94 532z" />
<glyph unicode=")" horiz-adv-x="682" d="M92 -28q110 92 176 306q60 198 60 414q0 212 -62 400q-66 200 -174 294l112 186q190 -106 292 -360q94 -232 94 -524t-94 -532q-102 -264 -292 -370z" />
<glyph unicode="*" horiz-adv-x="996" d="M52 808l210 114l-210 114l128 202l200 -120v244h234v-244l202 120l128 -202l-210 -114l210 -114l-128 -204l-202 124v-248h-234v248l-200 -124z" />
<glyph unicode="+" horiz-adv-x="1170" d="M62 686l372 28l-18 326h330l10 -318h352v-328h-336l16 -374h-328l-18 370l-362 -28z" />
<glyph unicode="," horiz-adv-x="570" d="M82 142q0 84 54 136q52 48 136 48q216 0 216 -244q0 -176 -114 -266l-136 84q54 62 54 108q-34 -10 -68 -10q-66 0 -104 40q-38 38 -38 104z" />
<glyph unicode="-" horiz-adv-x="682" d="M84 394v328h512v-328h-512z" />
<glyph unicode="." horiz-adv-x="570" d="M92 192q0 80 58 134q54 58 134 58t136 -58q58 -54 58 -134t-58 -136q-56 -58 -136 -58t-134 58q-58 56 -58 136z" />
<glyph unicode="/" horiz-adv-x="570" d="M20 -110l246 1660l282 -68l-238 -1664z" />
<glyph unicode="0" horiz-adv-x="1594" d="M54 618q0 356 222 554q214 190 574 190q266 0 468 -162q222 -176 222 -436q0 -320 -216 -544q-216 -222 -538 -222q-292 0 -502 158q-230 174 -230 462zM396 632q0 -142 130 -224q112 -70 266 -70q174 0 286 112q108 110 108 284q0 144 -132 230q-114 74 -268 74 q-176 0 -282 -114q-108 -114 -108 -292z" />
<glyph unicode="1" horiz-adv-x="1594" d="M568 1344l374 24l84 -1354l-364 -16z" />
<glyph unicode="2" horiz-adv-x="1594" d="M96 846q70 264 278 396q190 118 474 118q236 0 400 -96q200 -116 200 -334q0 -172 -202 -326q-116 -86 -360 -200q-152 -72 -152 -86q0 -10 48 -10q252 0 554 170l162 -278q-402 -202 -694 -202q-454 0 -454 296q0 158 222 294q146 90 364 208q50 26 104 70q68 52 68 74 q0 118 -256 118q-348 0 -456 -286z" />
<glyph unicode="3" horiz-adv-x="1594" d="M88 1090q344 274 732 274q182 0 314 -70q164 -92 164 -264q0 -152 -82 -274q290 -64 290 -306q0 -222 -244 -346q-200 -106 -448 -106l-76 296q134 0 256 28q150 38 150 98q0 82 -166 82q-180 0 -458 -84l-86 292q80 0 288 84q236 92 236 166q0 66 -36 90q-28 14 -108 14 q-240 0 -548 -214z" />
<glyph unicode="4" horiz-adv-x="1594" d="M54 586q0 218 166 462q142 208 314 316l234 -204q-138 -110 -244 -256q-126 -170 -126 -286q0 -152 394 -152q2 124 52 408q4 20 90 472l308 -74q-28 -192 -64 -446q-38 -256 -42 -310l320 86l84 -282l-410 -108l6 -214l-334 10l-6 152q-124 -16 -318 20 q-424 82 -424 406z" />
<glyph unicode="5" horiz-adv-x="1594" d="M84 754q0 294 138 610l296 -16l-10 -36q222 12 384 12q214 0 578 -26l-42 -322q-394 40 -614 40q-148 0 -364 -12q-24 -116 -26 -228q186 86 438 86q256 0 436 -112q212 -132 212 -374q0 -132 -152 -378l-296 152q104 136 104 236q0 76 -128 130q-104 48 -192 48 q-194 0 -368 -86q-50 -26 -102 -54q-66 -34 -100 -34q-192 0 -192 364z" />
<glyph unicode="6" horiz-adv-x="1594" d="M70 554q0 314 214 548q208 232 498 262l68 -268q-216 -64 -294 -158q176 62 348 62q254 0 414 -90q206 -114 206 -352q0 -280 -204 -428q-178 -132 -466 -132q-326 0 -526 112q-258 140 -258 444zM438 444q0 -134 440 -134q134 0 220 58q96 66 96 190q0 76 -106 110 q-78 28 -170 28q-136 0 -292 -64q-188 -78 -188 -188z" />
<glyph unicode="7" horiz-adv-x="1594" d="M44 1230q402 132 732 132q260 0 454 -62q320 -104 320 -348q0 -210 -268 -552q-186 -238 -390 -418l-284 236q300 286 356 348q226 246 226 358q0 108 -388 108q-274 0 -614 -122z" />
<glyph unicode="8" horiz-adv-x="1594" d="M78 426q0 156 126 278q-94 108 -94 228q0 234 246 346q180 82 440 82q264 0 440 -76q246 -104 246 -340q0 -130 -92 -236q126 -114 126 -256q0 -238 -230 -360q-182 -96 -438 -96q-270 0 -480 82q-290 116 -290 348zM412 424q0 -122 440 -122q330 0 330 138q0 40 -70 96 q-110 -36 -264 -36q-180 0 -356 48q-80 -58 -80 -124zM430 924q0 -68 186 -100q130 -24 258 -24q268 0 290 152q-22 110 -312 110q-422 0 -422 -138z" />
<glyph unicode="9" horiz-adv-x="1594" d="M40 784q0 282 282 444q234 132 532 132q202 0 304 -28q138 -38 264 -164l-240 -212q-126 106 -364 106q-162 0 -292 -72q-154 -86 -154 -232q0 -84 128 -130q96 -36 206 -36q494 0 536 344l310 -82l-174 -856l-344 56l64 312q-186 -78 -422 -78q-260 0 -432 112 q-204 134 -204 384z" />
<glyph unicode=":" horiz-adv-x="570" d="M92 194q0 80 58 136q54 56 134 56t136 -56q58 -56 58 -136t-58 -138q-56 -58 -136 -58t-134 58q-58 58 -58 138zM92 866q0 78 58 136q54 58 134 58t136 -58q58 -58 58 -136q0 -82 -58 -138q-56 -56 -136 -56t-134 56q-58 56 -58 138z" />
<glyph unicode=";" horiz-adv-x="570" d="M82 140q0 84 54 134q52 50 136 50q216 0 216 -244q0 -176 -114 -266l-138 84q56 66 56 108q-34 -10 -68 -10q-66 0 -106 40q-36 40 -36 104zM82 866q0 78 58 136q54 58 134 58t136 -58t56 -136q0 -82 -56 -138t-136 -56t-134 56q-58 56 -58 138z" />
<glyph unicode="&#x3c;" horiz-adv-x="1170" d="M140 536q0 152 264 296q274 148 456 230l170 -222q-148 -68 -460 -228q-98 -52 -98 -82q0 -28 102 -82q260 -140 454 -234l-168 -222q-154 76 -450 236q-270 162 -270 308z" />
<glyph unicode="=" horiz-adv-x="1170" d="M96 942q462 30 510 30q124 0 218 2q94 4 250 4v-328h-188q-148 -2 -250 -2q-154 0 -516 -28zM120 396q52 4 274 20q104 8 212 8q124 0 218 4q94 2 250 2v-326q-38 0 -188 -2q-148 -2 -250 -2q-130 0 -490 -30z" />
<glyph unicode="&#x3e;" horiz-adv-x="1170" d="M140 840l170 222q182 -82 456 -230q264 -144 264 -296q0 -146 -268 -308q-126 -74 -452 -236l-168 222q196 94 454 234q102 54 102 82q0 30 -98 82q-152 76 -460 228z" />
<glyph unicode="?" horiz-adv-x="1300" d="M102 970q0 206 180 310q142 82 354 82t368 -88q194 -110 194 -316q0 -302 -478 -584l-154 202q128 70 246 180q114 112 114 176q0 86 -94 132q-78 38 -196 38q-264 0 -264 -120q0 -88 132 -230l-194 -138q-94 62 -150 160q-58 100 -58 196zM378 102l94 242 q124 -20 434 -90l-94 -256q-124 28 -434 104z" />
<glyph unicode="@" horiz-adv-x="1458" d="M62 648q0 304 202 510q200 204 508 204q292 0 468 -180q156 -164 156 -412q0 -156 -64 -278q-82 -150 -230 -150q-72 0 -138 46q-102 -104 -280 -104q-146 0 -232 104q-86 102 -86 258q0 206 136 336q118 112 270 112q104 0 180 -32q46 -18 162 -94l-124 -212 q-62 46 -104 62q-40 14 -114 14q-48 0 -88 -40q-54 -52 -54 -146q0 -100 54 -100q90 0 140 76q24 38 56 152l238 -70q-16 -56 -34 -108q12 -4 32 -4t46 70q24 72 24 142q0 324 -414 324q-198 0 -328 -142q-130 -140 -130 -342q0 -200 130 -312q120 -98 304 -98 q338 0 512 132l112 -206q-300 -162 -624 -162q-302 0 -488 166q-198 176 -198 484z" />
<glyph unicode="A" horiz-adv-x="1590" d="M30 46q0 178 94 472q102 318 252 536q216 308 474 308q378 0 570 -506q138 -368 138 -820l-334 -38q0 334 -62 620q-100 436 -312 436q-140 0 -334 -410q116 -2 444 -82l-76 -310q-400 76 -486 82q-62 -290 -62 -336z" />
<glyph unicode="B" horiz-adv-x="1524" d="M82 474q0 522 112 812l172 -28q290 104 490 104q234 0 390 -98q184 -116 184 -338q0 -132 -72 -230q104 -120 104 -286q0 -198 -178 -312q-152 -98 -360 -98q-240 0 -498 84l8 -36l-312 -50q-40 190 -40 476zM386 420q278 -108 528 -108q228 0 228 124q0 72 -110 96 q-52 10 -166 10h-58l-12 294h66q104 0 148 10q92 24 92 92q0 66 -76 100q-58 26 -138 26q-190 0 -464 -136q0 -84 -18 -254q-20 -170 -20 -254z" />
<glyph unicode="C" horiz-adv-x="1554" d="M62 632q0 330 224 534q218 196 552 196q418 0 600 -360l-250 -154q-120 220 -370 220q-190 0 -314 -130q-126 -128 -126 -316q0 -158 156 -240q128 -68 304 -68q240 0 460 198l194 -258q-298 -256 -658 -256q-312 0 -528 156q-244 176 -244 478z" />
<glyph unicode="D" horiz-adv-x="1564" d="M82 688q0 418 60 588l194 -18q246 104 504 104q296 0 478 -168q186 -174 186 -470q0 -708 -730 -708q-206 0 -348 66l8 -40l-312 -44q-40 314 -40 690zM374 714q0 -182 18 -320q236 -68 414 -68q376 0 376 364q0 180 -100 276q-98 98 -278 98q-92 0 -214 -24 q-136 -32 -198 -72q-18 -92 -18 -254z" />
<glyph unicode="E" horiz-adv-x="1632" d="M82 1336q38 0 316 14q278 12 416 12q454 0 754 -56l-52 -294q-335 48 -616 48h-22l-358 -2l-38 -180l614 -46l-28 -314l-630 46q24 -248 306 -248q242 0 710 200l116 -276q-468 -242 -790 -242q-294 0 -470 132q-200 148 -200 434q0 188 80 500l-80 -8z" />
<glyph unicode="F" horiz-adv-x="1688" d="M84 1308q-4 0 328 26q330 28 494 28q238 0 720 -54l-46 -304q-461 62 -654 62h-32l-284 -8q-12 -112 -24 -332q198 -26 338 -26q246 0 378 28l54 -282q-180 -54 -390 -54q-152 0 -374 32q0 -114 44 -388l-304 -38q-52 262 -52 622q0 240 20 412l-186 -28z" />
<glyph unicode="G" horiz-adv-x="1526" d="M62 618q0 328 224 540q222 204 554 204q356 0 578 -192l-194 -234q-140 120 -402 120q-192 0 -316 -130q-126 -128 -126 -322q0 -136 132 -222q114 -74 262 -74q88 0 228 48q160 52 160 112q0 42 -52 42q-186 0 -420 -88l-114 300q288 98 478 98q216 0 320 -150 q90 -128 90 -350q0 -98 -38 -322l-304 32l12 64q-180 -96 -390 -96q-288 0 -480 164q-202 172 -202 456z" />
<glyph unicode="H" horiz-adv-x="1602" d="M82 760q0 206 64 596l328 -32q-46 -330 -46 -508q280 26 406 26q84 0 348 -32q0 56 -58 524l330 28q20 -172 44 -344q22 -196 22 -338q0 -368 -34 -682l-320 32q24 308 24 450q-286 48 -386 48q-188 0 -372 -32q2 -152 76 -444l-326 -56q-38 122 -72 394q-28 242 -28 370 z" />
<glyph unicode="I" horiz-adv-x="818" d="M82 62l16 284q84 -40 152 -48l-2 780q-52 0 -116 -20l-16 288q94 16 222 16q170 0 366 -34l-10 -292q-106 38 -164 38l2 -782q88 0 184 26l20 -274q-112 -46 -238 -46q-228 0 -416 64z" />
<glyph unicode="J" horiz-adv-x="1590" d="M30 1298q624 64 870 64q452 0 658 -90l-62 -288q-94 24 -278 54q78 -222 78 -390q0 -300 -174 -474q-176 -176 -474 -176q-300 0 -590 292l184 222q232 -198 434 -198q144 0 226 86q84 84 84 228q0 218 -106 420q-316 0 -804 -52z" />
<glyph unicode="K" horiz-adv-x="1396" d="M82 526q0 442 100 836l308 -54q-40 -184 -44 -210q-20 -118 -22 -210q154 144 360 266q238 142 414 164l108 -254q-468 -162 -744 -438q162 -110 408 -214q218 -90 396 -136l-142 -278q-260 76 -406 136q-208 86 -402 214q4 -66 44 -296l-344 -54q-34 282 -34 528z" />
<glyph unicode="L" horiz-adv-x="1514" d="M82 630q0 188 54 432q40 192 84 300l302 -64q-26 -112 -76 -340q-40 -210 -40 -334q0 -160 58 -234q66 -80 220 -80q244 0 662 162l106 -292q-462 -182 -778 -182q-592 0 -592 632z" />
<glyph unicode="M" horiz-adv-x="1562" d="M82 832q0 530 234 530q94 0 244 -122l208 -192q114 106 186 178q130 128 216 128q194 0 266 -202q44 -126 44 -358q0 -464 -40 -678l-326 52q14 126 24 444q5 152 5 235q0 99 -7 99q-42 0 -224 -268l-254 -12q-162 202 -228 202q-24 0 -24 -134q0 -182 112 -676l-324 -60 q-38 120 -76 384q-36 272 -36 450z" />
<glyph unicode="N" horiz-adv-x="1532" d="M82 642q0 246 50 428q76 292 262 292q140 0 232 -188q132 -266 334 -590q110 -172 138 -172q16 0 16 66q0 442 -186 776l316 132q80 -130 138 -334q68 -232 68 -424t-60 -348q-82 -222 -244 -222q-184 0 -350 202q-186 228 -344 544q-22 44 -26 44q-6 0 -8 -60t-2 -117 q0 -369 68 -587l-318 -86q-30 100 -58 300q-26 198 -26 344z" />
<glyph unicode="O" horiz-adv-x="1484" d="M62 690q0 310 184 492q184 180 496 180q310 0 494 -176q188 -176 188 -486q0 -302 -182 -498q-190 -204 -488 -204q-308 0 -500 194q-192 192 -192 498zM378 662q0 -166 122 -260q110 -86 282 -86q144 0 238 116q86 108 86 256q0 164 -94 264q-96 98 -258 98 q-376 0 -376 -388z" />
<glyph unicode="P" horiz-adv-x="1518" d="M82 688q0 280 76 674l304 -30l-8 -40q228 56 382 56q290 0 454 -162q166 -162 166 -452t-188 -450q-178 -152 -472 -152q-204 0 -360 70q2 -60 18 -162l-308 -42q-64 224 -64 690zM404 550q80 -50 196 -80q116 -34 212 -34q316 0 316 326q0 262 -332 262q-152 0 -368 -62 q-24 -170 -24 -412z" />
<glyph unicode="Q" horiz-adv-x="1562" d="M62 692q0 310 186 490t498 180t498 -172q188 -178 188 -488q0 -192 -72 -316l172 -134l-208 -244l-160 122q-196 -132 -404 -132q-310 0 -504 194q-194 192 -194 500zM352 676q0 -164 116 -278q118 -114 282 -114q68 0 122 20l-170 132l226 262l198 -152q24 70 24 138 q0 162 -118 278q-120 116 -282 116q-166 0 -284 -116q-114 -120 -114 -286z" />
<glyph unicode="R" horiz-adv-x="1522" d="M82 674q0 230 58 688l292 -14l-8 -60q252 74 458 74q268 0 418 -128q160 -138 160 -402q0 -250 -168 -426q64 -94 90 -142q50 -78 76 -146l-288 -120q-34 74 -160 276q-106 -16 -202 -16q-224 0 -388 78q12 -86 52 -258l-296 -80q-40 94 -68 318q-26 202 -26 358z M392 702q148 -130 406 -130q336 0 336 262q0 226 -270 226q-188 0 -454 -98q-18 -130 -18 -260z" />
<glyph unicode="S" horiz-adv-x="1446" d="M62 324l198 230q272 -244 582 -244q218 0 218 86q0 64 -52 100q-46 34 -164 66q-140 26 -278 54q-186 36 -276 96q-122 84 -122 240q0 218 190 324q154 86 388 86q354 0 638 -212l-122 -258q-338 176 -558 176q-230 0 -230 -98q0 -36 226 -74q304 -52 444 -126 q238 -122 238 -364q0 -202 -170 -314q-144 -94 -356 -94q-480 0 -794 326z" />
<glyph unicode="T" horiz-adv-x="1488" d="M30 1312q376 50 712 50q392 0 716 -78l-58 -304q-396 64 -518 68q-18 -214 -18 -320q0 -344 94 -670l-314 -60q-100 224 -100 740q0 144 14 310q-190 0 -492 -48z" />
<glyph unicode="U" horiz-adv-x="1528" d="M82 728q0 182 42 352q28 104 96 282l284 -94q-100 -276 -100 -516q0 -188 98 -308q104 -130 286 -130q180 0 272 142q78 120 78 312q0 254 -102 494l280 86q52 -112 88 -272q42 -178 42 -320q0 -350 -152 -542q-168 -216 -512 -216q-340 0 -522 198q-178 190 -178 532z " />
<glyph unicode="V" horiz-adv-x="1608" d="M30 1300l346 56q0 -78 80 -328q86 -272 180 -462q118 -234 200 -234q78 0 244 440q162 426 166 590l330 -56q-110 -460 -248 -768q-238 -540 -512 -540q-270 0 -510 478q-190 376 -276 824z" />
<glyph unicode="W" horiz-adv-x="1594" d="M62 600q0 456 198 762l270 -110q-158 -334 -158 -660q0 -266 128 -266q86 0 126 58q32 46 42 146l300 -10q44 -206 146 -206q106 0 106 206t-80 376q-58 124 -190 284l230 174q352 -318 352 -830q0 -224 -90 -362q-108 -164 -324 -164q-186 0 -304 126 q-184 -126 -290 -126q-240 0 -362 192q-100 158 -100 410z" />
<glyph unicode="X" horiz-adv-x="1504" d="M30 146q246 362 478 622q-130 124 -434 362l202 232q214 -152 446 -370q128 112 302 224q174 108 268 134l156 -272q-226 -68 -512 -302q90 -90 264 -284q176 -194 272 -290l-236 -206q-168 192 -512 562q-200 -230 -424 -560z" />
<glyph unicode="Y" horiz-adv-x="1510" d="M30 1310l310 36q0 -282 50 -436q78 -250 290 -250q248 0 370 166q106 146 106 400q0 56 -8 118l318 18q12 -92 12 -180q0 -294 -124 -498q-152 -252 -474 -330l72 -292l-338 -64l-90 372q-242 86 -358 260q-108 158 -130 414q-6 78 -6 266z" />
<glyph unicode="Z" horiz-adv-x="1500" d="M62 1260q452 102 734 102q210 0 372 -52q242 -80 242 -254q0 -156 -276 -298q-206 -92 -412 -182q-236 -120 -236 -194q0 -34 124 -52q90 -14 158 -14q272 0 560 136l110 -294q-334 -160 -666 -160q-206 0 -398 78q-250 100 -250 286q0 302 636 582q216 98 216 100 q0 24 -110 24q-326 0 -726 -100z" />
<glyph unicode="[" horiz-adv-x="682" d="M84 224v924q0 222 38 308q58 132 240 132q132 0 236 -52l-48 -232q-86 22 -128 22q-48 0 -66 -20q-16 -20 -16 -72v-1096q0 -54 16 -74q18 -18 66 -18q42 0 128 22l48 -234q-104 -50 -236 -50q-182 0 -240 130q-38 86 -38 310z" />
<glyph unicode="\" horiz-adv-x="570" d="M20 1482l284 68l244 -1660l-288 -72z" />
<glyph unicode="]" horiz-adv-x="682" d="M84 -166l48 234q86 -22 128 -22q48 0 64 18q18 20 18 74v1096q0 52 -18 72q-16 20 -64 20q-42 0 -128 -22l-48 232q104 52 236 52q182 0 240 -132q38 -86 38 -308v-924q0 -224 -38 -310q-58 -130 -240 -130q-132 0 -236 50z" />
<glyph unicode="^" horiz-adv-x="898" d="M40 750l314 614h188l314 -614h-264l-144 290l-142 -290h-266z" />
<glyph unicode="_" horiz-adv-x="1024" d="M0 40h1024v-328h-1024v328z" />
<glyph unicode="`" horiz-adv-x="682" d="M130 1272l146 94l276 -220l-148 -94z" />
<glyph unicode="a" horiz-adv-x="1458" d="M40 478q0 280 204 438q184 144 476 144q256 0 442 -118l-184 -246q-128 58 -258 58q-154 0 -254 -66q-112 -76 -112 -220q0 -66 54 -112q52 -50 120 -50q226 0 356 106q130 108 138 304l284 -48v-210q0 -142 90 -312l-272 -152l-70 136q-246 -132 -510 -132 q-208 0 -356 136q-148 138 -148 344z" />
<glyph unicode="b" horiz-adv-x="1328" d="M62 592q0 334 72 770l322 -32l-52 -346q142 76 344 76q254 0 394 -142q144 -142 144 -394q0 -234 -136 -380t-370 -146q-208 0 -356 76l4 -28l-316 -50q-50 336 -50 596zM378 456q124 -152 404 -152q88 0 140 60q48 60 48 150q0 110 -66 176q-68 68 -176 68 q-178 0 -350 -144v-158z" />
<glyph unicode="c" horiz-adv-x="1214" d="M40 510q0 252 176 404q166 146 420 146q302 0 484 -206l-204 -206q-132 108 -284 108q-112 0 -192 -58q-88 -66 -88 -172q0 -100 82 -164q76 -60 178 -60q194 0 362 158l200 -234q-286 -228 -546 -228q-234 0 -404 136q-184 146 -184 376z" />
<glyph unicode="d" horiz-adv-x="1348" d="M40 504q0 252 176 408q166 148 422 148q168 0 318 -68v370l308 -16l22 -1348l-316 16l2 112q-198 -128 -380 -128q-240 0 -392 132q-160 140 -160 374zM354 504q0 -96 70 -148q64 -50 166 -50q172 0 372 194l2 122q-170 132 -334 132q-124 0 -200 -66q-76 -64 -76 -184z " />
<glyph unicode="e" horiz-adv-x="1286" d="M40 546q0 226 196 376q178 138 410 138q226 0 400 -120q200 -136 200 -356q0 -130 -74 -208q-76 -76 -210 -76q-166 0 -610 120q134 -132 412 -132l-28 -290q-332 0 -496 110q-200 128 -200 438zM434 668q400 -98 472 -98q22 0 28 6q4 4 4 28q0 70 -92 114 q-78 34 -160 34q-148 0 -252 -84z" />
<glyph unicode="f" horiz-adv-x="740" d="M40 760l12 300h144q36 126 110 206q88 96 204 96q84 0 126 -16l-32 -270q-68 0 -88 -56q50 -4 182 -42l-32 -274q-70 30 -228 48q-6 -190 -6 -226q0 -190 58 -448l-266 -80q-78 235 -78 455v31l6 276h-112z" />
<glyph unicode="g" horiz-adv-x="1362" d="M40 496q0 250 190 412q178 152 432 152q122 0 272 -58l-6 46l320 22q52 -604 52 -882q0 -180 -94 -304q-104 -142 -278 -142q-108 0 -230 90l76 180q-42 -20 -160 -20q-246 0 -404 126q-170 136 -170 378zM346 520q0 -108 82 -164q72 -50 180 -50q112 0 216 70 q102 70 152 174l-10 108q-142 104 -302 104q-122 0 -214 -58q-104 -70 -104 -184zM872 58q42 -28 56 -28q80 0 80 104q0 20 -4 28q-76 -70 -132 -104z" />
<glyph unicode="h" horiz-adv-x="1404" d="M62 634q0 252 106 728l308 -52q-68 -236 -74 -348q214 98 390 98q248 0 396 -126q156 -134 156 -380q0 -260 -100 -556l-306 74q90 250 90 436q0 226 -258 226q-196 0 -368 -124q-6 -42 -6 -92q0 -154 84 -452l-304 -68q-114 364 -114 636z" />
<glyph unicode="i" horiz-adv-x="746" d="M120 1108l72 254q100 -20 432 -104l-66 -246zM176 932l326 8q0 -326 90 -896l-308 -52q-36 126 -74 456q-34 316 -34 484z" />
<glyph unicode="j" horiz-adv-x="1042" d="M10 -26l190 202q148 -124 268 -124q78 0 120 82q34 68 34 158q0 294 -140 564l298 96q160 -362 160 -700q0 -212 -112 -354q-124 -156 -330 -156q-138 0 -268 64q-134 66 -220 168zM324 1344q104 18 184 18q234 0 370 -88l-60 -230q-180 50 -350 50q-56 0 -124 -10z" />
<glyph unicode="k" horiz-adv-x="1250" d="M82 730q0 292 98 632l306 -78q-86 -353 -86 -505v-19q82 70 340 176q212 88 358 130l118 -272q-152 -48 -302 -94q-228 -82 -292 -164q78 -56 286 -146q186 -82 310 -120l-118 -272q-142 42 -318 128q-154 76 -304 154q12 -68 50 -202q-22 -6 -320 -80q-126 358 -126 732 z" />
<glyph unicode="l" horiz-adv-x="746" d="M182 508q0 502 36 856l344 -24q-30 -436 -30 -866q0 -202 8 -472h-348q-10 306 -10 506z" />
<glyph unicode="m" horiz-adv-x="1524" d="M62 742q0 178 22 328q136 -12 268 -12v-44q68 34 168 34q150 0 258 -92q144 104 316 104q194 0 288 -146q80 -118 80 -318q0 -292 -120 -598l-286 66q42 166 62 262q36 166 36 258q0 156 -86 156q-88 0 -134 -48q-40 -38 -72 -134l-272 32q8 28 8 52q0 98 -108 98 q-94 0 -116 -30q-14 -44 -14 -132q0 -234 96 -476l-286 -76q-56 104 -84 354q-24 192 -24 362z" />
<glyph unicode="n" horiz-adv-x="1430" d="M62 824q0 56 12 202l304 -14v-68q76 58 224 88q122 28 236 28q260 0 394 -148q136 -148 136 -408q0 -240 -74 -506l-298 52q42 196 42 408q0 148 -40 208q-50 76 -184 76q-206 0 -408 -156q28 -290 104 -516l-282 -72q-82 140 -128 404q-38 222 -38 422z" />
<glyph unicode="o" horiz-adv-x="1354" d="M40 518q0 272 196 414q172 128 450 128q260 0 434 -128q192 -142 192 -394t-184 -402q-170 -138 -428 -138q-276 0 -452 118q-208 138 -208 402zM374 520q0 -110 102 -166q86 -50 206 -50q126 0 208 52q102 60 102 176q0 114 -110 176q-88 48 -216 48q-122 0 -202 -56 q-90 -64 -90 -180z" />
<glyph unicode="p" horiz-adv-x="1380" d="M62 568q0 286 52 494l286 -50l-8 -42q150 90 342 90q260 0 428 -138q178 -148 178 -404q0 -238 -172 -384q-162 -136 -410 -136q-176 0 -314 88q50 -156 92 -250l-304 -94q-86 118 -134 402q-36 224 -36 424zM370 492q182 -184 384 -184q120 0 196 60q74 56 74 168 q0 106 -82 164q-72 50 -184 50q-90 0 -206 -38q-114 -38 -182 -94v-126z" />
<glyph unicode="q" horiz-adv-x="1324" d="M40 512q0 258 176 408q162 140 426 140q166 0 314 -86v50l304 -6l2 -1276h-310q-6 84 -6 342q-178 -86 -334 -86q-236 0 -396 136q-176 146 -176 378zM352 510q0 -108 88 -164q74 -46 192 -46q86 0 174 34q92 38 140 98v228q-152 96 -304 96q-290 0 -290 -246z" />
<glyph unicode="r" horiz-adv-x="792" d="M82 1014l296 48l36 -222q72 190 318 222l20 -298q-208 -54 -266 -288l74 -406l-296 -72l-94 496q-16 92 -88 520z" />
<glyph unicode="s" horiz-adv-x="1098" d="M62 176l150 264q218 -140 400 -140q96 0 96 22q0 46 -144 80q-220 54 -292 90q-154 82 -154 242q0 176 150 260q118 66 306 66q284 0 462 -158l-142 -228q-144 100 -334 100q-110 0 -116 -22q68 -16 192 -46q398 -110 398 -400q0 -154 -144 -238q-116 -70 -276 -70 q-278 0 -552 178z" />
<glyph unicode="t" horiz-adv-x="1306" d="M30 1058q214 24 462 24q38 100 112 274l274 -96q-30 -106 -64 -188q148 -20 452 -72l-58 -326q-330 82 -514 84q-68 -222 -68 -326q0 -124 108 -124q92 0 292 104l146 -248q-224 -166 -438 -166q-206 0 -312 118q-104 116 -104 320q0 152 54 328q-20 0 -306 -16z" />
<glyph unicode="u" horiz-adv-x="1486" d="M62 530q0 298 212 530l282 -144q-182 -208 -182 -404q0 -208 228 -208q326 0 440 472q30 120 64 280l312 -86q-58 -252 -58 -528q0 -252 66 -380q-110 -26 -330 -66q-24 82 -38 136q-192 -134 -438 -134q-260 0 -410 138q-148 138 -148 394z" />
<glyph unicode="v" horiz-adv-x="1398" d="M20 1028l322 32q52 -314 84 -426q92 -310 236 -310t276 278q116 248 116 451v7l324 -50q-40 -346 -206 -640q-212 -372 -506 -372q-298 0 -478 390q-124 268 -168 640z" />
<glyph unicode="w" horiz-adv-x="1600" d="M62 520q0 254 180 540l314 -126q-70 -94 -120 -210q-54 -130 -54 -226q0 -76 34 -128q36 -66 102 -66q54 0 86 54q28 46 28 112l262 14q64 -174 174 -174q62 0 110 60q42 52 42 118q0 122 -58 230q-22 36 -134 192l298 150q104 -158 146 -256q66 -146 66 -284 q0 -226 -110 -366q-124 -156 -354 -156q-176 0 -298 96q-120 -90 -272 -90q-226 0 -342 156q-100 138 -100 360z" />
<glyph unicode="x" horiz-adv-x="1330" d="M20 782l130 270q230 -30 498 -244q216 172 548 252l112 -286q-252 -42 -434 -170q104 -94 210 -190q120 -110 194 -204l-230 -212q-136 142 -406 400q-104 -102 -332 -398l-260 172q108 164 362 426q-144 120 -392 184z" />
<glyph unicode="y" horiz-adv-x="1396" d="M20 830l286 146q120 -254 170 -332q104 -164 262 -274q146 164 364 690l274 -126q-48 -212 -312 -608q-242 -368 -456 -584l-260 196q84 64 102 82q52 42 84 88q-162 114 -300 326q-82 128 -214 396z" />
<glyph unicode="z" horiz-adv-x="1338" d="M40 970q114 42 336 68q188 22 340 22q200 0 334 -42q218 -64 218 -224q0 -104 -90 -182q-58 -50 -180 -110q-44 -20 -126 -60q-106 -48 -316 -146q64 -8 90 -8q226 0 514 124l136 -272q-256 -142 -636 -142q-192 0 -320 40q-210 62 -210 212q0 134 150 246q90 68 270 146 q94 40 278 116q-20 2 -168 2q-298 0 -528 -72z" />
<glyph unicode="{" horiz-adv-x="684" d="M86 698q0 48 60 132t60 128t-12 122q-14 80 -14 140q0 150 108 240q86 74 260 120l50 -226q-90 -46 -96 -52q-56 -40 -56 -88q0 -46 12 -138q14 -92 14 -138q0 -142 -108 -240q46 -56 78 -140q30 -76 30 -124q0 -44 -14 -128q-12 -84 -12 -130q0 -60 52 -100 q8 -6 100 -56l-50 -234q-368 100 -368 386q0 52 14 122q12 72 12 120t-60 142q-60 96 -60 142z" />
<glyph unicode="|" horiz-adv-x="532" d="M102 -2v556h328v-556h-328zM102 808v554h328v-554h-328z" />
<glyph unicode="}" horiz-adv-x="684" d="M86 20q92 50 100 56q52 40 52 100q0 46 -12 130q-14 84 -14 128q0 48 30 124q32 84 78 140q-108 98 -108 240q0 46 14 138q12 92 12 138q0 48 -56 88q-6 6 -96 52l50 226q174 -46 260 -120q108 -90 108 -240q0 -60 -14 -140q-12 -78 -12 -122t60 -128t60 -132 q0 -46 -60 -142q-60 -94 -60 -142t12 -120q14 -70 14 -122q0 -286 -368 -386z" />
<glyph unicode="~" horiz-adv-x="682" d="M8 1086q86 276 230 276q68 0 126 -54q62 -56 98 -56q50 0 74 122l138 -172q-80 -220 -208 -220q-70 0 -138 54q-66 54 -96 54q-52 0 -74 -116z" />
<glyph unicode="&#xa4;" d="M218 120l150 152q-146 206 -146 464q0 254 148 464l-152 152l190 190l152 -150q206 146 464 146q256 0 462 -146l156 150l188 -190l-150 -152q146 -206 146 -464t-146 -464l150 -152l-188 -190l-156 150q-206 -146 -462 -146t-462 146l-156 -150zM500 736 q0 -218 154 -370q152 -154 370 -154t370 154q154 152 154 370t-154 370q-152 154 -370 154t-370 -154q-154 -152 -154 -370z" />
<glyph unicode="&#xa7;" d="M446 46l184 260q86 -78 200 -120q102 -42 186 -42q134 0 134 74q0 34 -166 84q-214 66 -312 138q-168 122 -168 328q0 186 138 272q-74 78 -74 202q0 210 148 318q134 94 372 94q162 0 272 -44q120 -44 242 -162l-184 -280q-86 78 -200 120q-102 42 -186 42 q-134 0 -134 -74q0 -34 160 -88q208 -70 304 -146q162 -126 162 -334q0 -116 -22 -160q-24 -48 -96 -94q74 -78 74 -202q0 -210 -148 -318q-134 -96 -372 -96q-154 0 -270 54q-116 50 -244 174zM832 776q0 -60 114 -126q72 -34 146 -72q58 10 76 22q28 24 28 80 q0 80 -86 138q-78 38 -154 78q-124 -20 -124 -120z" />
<glyph unicode="&#xa8;" d="M578 1494q0 74 50 124q52 52 126 52t124 -52q52 -50 52 -124t-52 -126q-50 -50 -124 -50t-126 50q-50 52 -50 126zM1118 1494q0 74 52 124q50 52 124 52t126 -52q50 -50 50 -124t-50 -126q-52 -50 -126 -50t-124 50q-52 52 -52 126z" />
<glyph unicode="&#xad;" horiz-adv-x="682" d="M84 394v328h512v-328h-512z" />
<glyph unicode="&#xb0;" d="M228 1434q0 118 84 202t200 84t200 -84t84 -202q0 -116 -84 -200t-200 -84t-200 84t-84 200zM388 1434q0 -50 36 -88q36 -36 88 -36t88 36q36 38 36 88q0 52 -36 88q-36 38 -88 38t-88 -38q-36 -36 -36 -88z" />
<glyph unicode="&#xb1;" d="M276 298q1204 50 1496 50v-328q-606 0 -1478 -52zM314 1136l562 40l-26 368h334l14 -358h534v-332h-512l26 -438h-332l-28 432l-548 -40z" />
<glyph unicode="&#xb7;" d="M704 736q0 134 94 226q92 94 226 94t226 -94q94 -92 94 -226t-94 -226q-92 -94 -226 -94t-226 94q-94 92 -94 226z" />
<glyph unicode="&#xd7;" d="M304 1136l212 254l478 -414l458 480l230 -230l-442 -460l504 -450l-206 -228l-518 444l-432 -474l-250 206l434 476z" />
<glyph unicode="&#xe0;" d="M272 532q0 310 224 484q206 162 532 162q286 0 484 -124l-196 -266q-142 64 -288 64q-176 0 -288 -78q-132 -88 -132 -256q0 -76 64 -134q64 -56 142 -56q256 0 404 122q150 120 158 338l302 -50v-230q0 -164 98 -348l-290 -162l-80 152q-278 -152 -576 -152 q-232 0 -392 150q-166 154 -166 384zM676 1408l112 266l584 -188l-108 -240z" />
<glyph unicode="&#xe1;" d="M272 532q0 310 224 484q206 162 532 162q286 0 484 -124l-196 -266q-142 64 -288 64q-176 0 -288 -78q-132 -88 -132 -256q0 -76 64 -134q64 -56 142 -56q256 0 404 122q150 120 158 338l302 -50v-230q0 -164 98 -348l-290 -162l-80 152q-278 -152 -576 -152 q-232 0 -392 150q-166 154 -166 384zM676 1512l588 162l108 -240l-584 -188z" />
<glyph unicode="&#xe8;" d="M354 606q0 252 216 418q198 154 456 154q254 0 448 -132q220 -150 220 -394q0 -146 -82 -230t-228 -84q-198 0 -714 144q68 -86 212 -134q128 -42 268 -42l-30 -308q-366 0 -546 122q-220 144 -220 486zM676 1408l112 266l584 -188l-108 -240zM770 740q458 -114 548 -114 q32 0 40 8q8 10 8 40q0 84 -110 136q-88 38 -182 38q-176 0 -304 -108z" />
<glyph unicode="&#xe9;" d="M354 606q0 252 216 418q198 154 456 154q254 0 448 -132q220 -150 220 -394q0 -146 -82 -230t-228 -84q-198 0 -714 144q68 -86 212 -134q128 -42 268 -42l-30 -308q-366 0 -546 122q-220 144 -220 486zM676 1512l588 162l108 -240l-584 -188zM770 740q458 -114 548 -114 q32 0 40 8q8 10 8 40q0 84 -110 136q-88 38 -182 38q-176 0 -304 -108z" />
<glyph unicode="&#xea;" d="M354 606q0 252 216 418q198 154 456 154q254 0 448 -132q220 -150 220 -394q0 -146 -82 -230t-228 -84q-198 0 -714 144q68 -86 212 -134q128 -42 268 -42l-30 -308q-366 0 -546 122q-220 144 -220 486zM606 1510q66 48 206 94t212 46t212 -46t206 -94l-162 -226 q-44 30 -124 58q-84 28 -130 28q-48 0 -132 -28q-82 -28 -126 -58zM770 740q458 -114 548 -114q32 0 40 8q8 10 8 40q0 84 -110 136q-88 38 -182 38q-176 0 -304 -108z" />
<glyph unicode="&#xec;" d="M676 1408l112 266l584 -188l-108 -240zM850 1042l308 8q0 -482 110 -990q-200 -42 -310 -62q-48 170 -80 514q-28 300 -28 530z" />
<glyph unicode="&#xed;" d="M676 1512l588 162l108 -240l-584 -188zM850 1042l308 8q0 -482 110 -990q-200 -42 -310 -62q-48 170 -80 514q-28 300 -28 530z" />
<glyph unicode="&#xf2;" d="M320 576q0 302 212 460q192 142 504 142q290 0 482 -142q212 -158 212 -440q0 -280 -204 -444q-188 -154 -476 -154q-308 0 -504 132q-226 154 -226 446zM676 580q0 -128 116 -198q98 -56 238 -56q144 0 240 60q118 70 118 204q0 136 -126 208q-104 56 -250 56 q-140 0 -232 -64q-104 -76 -104 -210zM676 1408l112 266l584 -188l-108 -240z" />
<glyph unicode="&#xf3;" d="M320 576q0 302 212 460q192 142 504 142q290 0 482 -142q212 -158 212 -440q0 -280 -204 -444q-188 -154 -476 -154q-308 0 -504 132q-226 154 -226 446zM676 580q0 -128 116 -198q98 -56 238 -56q144 0 240 60q118 70 118 204q0 136 -126 208q-104 56 -250 56 q-140 0 -232 -64q-104 -76 -104 -210zM676 1512l588 162l108 -240l-584 -188z" />
<glyph unicode="&#xf7;" d="M276 890q1060 50 1496 50v-328q-606 0 -1478 -52zM808 262q0 92 64 154q62 62 152 62t152 -62q64 -62 64 -154q0 -90 -64 -152q-62 -62 -152 -62t-152 62q-64 62 -64 152zM808 1256q0 90 64 152q62 64 152 64t152 -64q64 -62 64 -152t-64 -152q-62 -62 -152 -62t-152 62 q-64 62 -64 152z" />
<glyph unicode="&#xf9;" d="M268 588q0 336 234 590l298 -154q-198 -228 -198 -454q0 -246 264 -246q376 0 506 542q10 38 68 306l334 -92q-64 -278 -64 -590q0 -286 70 -422q-118 -28 -350 -70q-16 52 -44 158q-220 -158 -498 -158q-288 0 -454 152q-166 154 -166 438zM676 1408l112 266l584 -188 l-108 -240z" />
<glyph unicode="&#xfa;" d="M268 588q0 336 234 590l298 -154q-198 -228 -198 -454q0 -246 264 -246q376 0 506 542q10 38 68 306l334 -92q-64 -278 -64 -590q0 -286 70 -422q-118 -28 -350 -70q-16 52 -44 158q-220 -158 -498 -158q-288 0 -454 152q-166 154 -166 438zM676 1512l588 162l108 -240 l-584 -188z" />
<glyph unicode="&#xfc;" d="M268 588q0 336 234 590l298 -154q-198 -228 -198 -454q0 -246 264 -246q376 0 506 542q10 38 68 306l334 -92q-64 -278 -64 -590q0 -286 70 -422q-118 -28 -350 -70q-16 52 -44 158q-220 -158 -498 -158q-288 0 -454 152q-166 154 -166 438zM594 1300q0 70 56 98 q36 16 118 16q78 0 114 -18q50 -26 50 -94q0 -70 -52 -94q-36 -18 -114 -18q-82 0 -116 14q-56 26 -56 96zM1116 1300q0 70 56 96q34 16 118 16q78 0 112 -16q52 -26 52 -94q0 -72 -52 -98q-34 -16 -114 -16t-116 16q-56 26 -56 96z" />
<glyph unicode="&#x2000;" horiz-adv-x="860" vert-adv-y="0" />
<glyph unicode="&#x2001;" horiz-adv-x="1720" vert-adv-y="0" />
<glyph unicode="&#x2002;" horiz-adv-x="860" vert-adv-y="0" />
<glyph unicode="&#x2003;" horiz-adv-x="1720" vert-adv-y="0" />
<glyph unicode="&#x2004;" horiz-adv-x="573" vert-adv-y="0" />
<glyph unicode="&#x2005;" horiz-adv-x="430" vert-adv-y="0" />
<glyph unicode="&#x2006;" horiz-adv-x="286" vert-adv-y="0" />
<glyph unicode="&#x2007;" horiz-adv-x="286" vert-adv-y="0" />
<glyph unicode="&#x2008;" horiz-adv-x="215" vert-adv-y="0" />
<glyph unicode="&#x2009;" horiz-adv-x="344" vert-adv-y="0" />
<glyph unicode="&#x200a;" horiz-adv-x="95" vert-adv-y="0" />
<glyph unicode="&#x2010;" horiz-adv-x="682" d="M84 394v328h512v-328h-512z" />
<glyph unicode="&#x2011;" horiz-adv-x="682" d="M84 394v328h512v-328h-512z" />
<glyph unicode="&#x2012;" horiz-adv-x="682" d="M84 394v328h512v-328h-512z" />
<glyph unicode="&#x2013;" horiz-adv-x="1194" d="M84 394v328h1024v-328h-1024z" />
<glyph unicode="&#x2014;" d="M0 572v328h2048v-328h-2048z" />
<glyph unicode="&#x2018;" d="M1312 1422q0 88 36 170q32 84 88 128l154 -98q-62 -68 -62 -118q34 10 78 10q72 0 114 -44t42 -116q0 -92 -60 -146q-60 -58 -152 -58q-118 0 -180 78q-58 72 -58 194z" />
<glyph unicode="&#x2019;" d="M288 1516q0 92 60 148t152 56q238 0 238 -272q0 -88 -34 -172q-34 -82 -90 -124l-154 96q62 70 62 118q-34 -10 -78 -10q-72 0 -112 44q-44 44 -44 116z" />
<glyph unicode="&#x201c;" d="M1072 1422q0 88 34 170q32 84 88 128l154 -98q-62 -68 -62 -118q34 10 78 10q72 0 114 -44t42 -116q0 -92 -60 -146q-60 -58 -152 -58q-118 0 -180 78q-56 72 -56 194zM1552 1422q0 88 34 170q34 84 90 128l152 -98q-60 -68 -60 -118q34 10 78 10q70 0 112 -44t42 -116 q0 -92 -58 -146q-60 -58 -152 -58q-118 0 -180 78q-58 72 -58 194z" />
<glyph unicode="&#x201d;" d="M48 1514q0 92 58 148q60 58 152 58q118 0 178 -74q60 -76 60 -200q0 -88 -34 -170q-34 -84 -90 -126l-152 96q60 70 60 118q-34 -10 -78 -10q-70 0 -112 46q-42 42 -42 114zM528 1514q0 92 60 148q60 58 152 58q118 0 178 -74q58 -76 58 -200q0 -88 -34 -170 q-32 -84 -88 -126l-154 96q62 70 62 118q-34 -10 -78 -10q-72 0 -114 46q-42 42 -42 114z" />
<glyph unicode="&#x2026;" d="M126 736q0 90 62 152q64 64 154 64t154 -64q62 -62 62 -152t-62 -152q-64 -64 -154 -64t-154 64q-62 62 -62 152zM808 736q0 90 64 152q62 64 152 64t152 -64q64 -62 64 -152t-64 -152q-62 -64 -152 -64t-152 64q-64 62 -64 152zM1490 736q0 90 62 152q64 64 154 64 t154 -64q62 -62 62 -152t-62 -152q-64 -64 -154 -64t-154 64q-62 62 -62 152z" />
<glyph unicode="&#x202f;" horiz-adv-x="344" vert-adv-y="0" />
<glyph unicode="&#x205f;" horiz-adv-x="430" vert-adv-y="0" />
<glyph unicode="&#x20ac;" d="M130 804l74 168h168q84 252 308 396q222 146 516 146q462 0 662 -392l-264 -162q-134 240 -422 240q-280 0 -422 -228h730l-70 -168h-726q-12 -56 -12 -114h712l-72 -166h-592q66 -98 212 -148q122 -42 264 -42q276 0 516 218l206 -274q-324 -280 -726 -280 q-294 0 -520 130q-250 144 -318 396h-212l76 166h114v12q0 48 6 102h-208z" />
<glyph unicode="&#x25fc;" horiz-adv-x="1060" vert-adv-y="2120" d="M0 0v1060h1060v-1060h-1060z" />
</font>
</defs>
</svg>
